<?xml version="1.0" encoding="UTF-8"?>
<svg width="337px" height="91px" viewBox="0 0 337 91" version="1.1" xmlns="http://www.w3.org/2000/svg" xmlns:xlink="http://www.w3.org/1999/xlink">
    <!-- Generator: sketchtool 41.2 (35397) - http://www.bohemiancoding.com/sketch -->
    <title>CE9E34A5-6316-4F9E-B471-1275B39E487F</title>
    <desc>Created with sketchtool.</desc>
    <defs></defs>
    <g id="2nd" stroke="none" stroke-width="1" fill="none" fill-rule="evenodd">
        <g id="case-study-full-page" transform="translate(-40.000000, -25.000000)" fill="#FFFFFF">
            <path d="M156.971901,78.2350903 C156.298177,78.2350903 156.074512,77.711386 156.074512,77.1140357 C156.074512,73.3758233 162.652183,61.5651997 166.165367,61.5651997 C166.987746,61.5651997 167.885135,62.0138943 168.482486,62.6126084 C163.699592,71.4337531 158.242975,78.2350903 156.971901,78.2350903 M164.395137,99.00324 C160.074576,103.138322 157.570615,103.981159 156.382733,102.740089 C156.382733,102.740089 155.16894,101.726775 158.600294,99.0509734 L165.188876,94.2094361 C165.780771,93.7471033 166.365847,93.6011753 166.881369,94.1398816 C167.657378,94.9499867 166.60997,96.8825102 164.395137,99.00324 M220.098729,56.9050495 C219.377272,55.6476136 218.234397,54.9534326 216.818758,54.8375085 C213.466505,54.563382 210.618863,55.4553159 203.957998,64.434663 C203.790249,64.6460541 203.330644,64.7578868 202.586002,64.697879 C204.271675,61.5351958 206.052816,57.3087383 206.256024,55.7512634 C205.805965,53.9142068 203.707057,52.992269 200.949426,52.765876 C198.04314,52.5285725 194.947284,52.7999713 191.732776,53.5868916 C191.765507,54.1133236 191.772326,54.9397945 191.679587,56.0567576 C191.470923,58.61118 189.717059,64.8738109 187.855454,70.5240896 C184.886432,73.685409 181.210956,76.6257905 177.602305,78.9838238 C181.714203,66.0507818 185.326944,55.5098684 186.447999,53.1927496 C185.4756,51.7730199 184.65322,51.1743058 183.233491,51.1743058 C181.438712,51.1743058 178.076912,51.5493545 172.992616,53.5664344 C170.375458,51.9966853 168.583408,49.821403 164.995215,49.821403 C155.053015,49.821403 142.020415,65.0797467 142.020415,80.8522481 C142.020415,85.9351805 144.487553,89.9707042 150.542885,90.7930836 C152.561328,90.7930836 156.298177,87.6535853 164.221933,77.7877595 C164.445598,77.4877206 164.969302,77.3390649 165.641662,77.3390649 C165.082499,78.7615222 164.456509,80.414464 163.853703,82.3456237 C162.641273,83.0275304 161.375654,83.8949157 160.062302,84.9586901 C160.062302,84.9586901 138.683164,103.642933 151.897151,114.482522 C154.671148,116.758726 160.333701,114.894393 166.55269,109.147284 C173.918646,102.340491 174.483264,95.8010062 176.242583,87.582667 C179.61393,84.8604955 183.144843,80.9108921 185.419684,77.9555086 C184.231802,81.6800828 183.311228,84.864587 183.177574,86.5079821 C183.98086,88.6000718 186.154779,89.5274648 189.059701,89.7647684 C191.370001,89.9543384 195.217319,89.6693014 197.383054,88.8714706 C197.771741,86.8789393 198.677313,83.1270888 200.113409,79.3438705 C203.006057,71.4814866 204.847205,69.1575486 205.994172,68.8766031 C208.882728,70.2376888 211.528526,70.9045935 213.391495,71.0559768 C214.358439,71.1364418 215.053984,70.8923192 215.618603,70.4149845 C215.862725,67.4336886 216.578727,65.092021 220.098729,56.9050495 M236.131719,72.7784731 C234.113275,78.1600806 232.319861,81.6732637 230.900131,82.4956432 C229.555411,82.4956432 228.881687,81.6732637 228.881687,80.1035146 C228.881687,78.4601195 229.927732,74.4982417 231.123796,71.507399 C233.143604,66.1257916 234.935655,62.6126084 236.356748,61.7902289 C237.701468,61.7902289 238.375192,62.6126084 238.375192,64.1823575 C238.375192,65.8271164 237.327783,69.7889942 236.131719,72.7784731 M309.844467,47.9188833 C309.020724,46.6478093 307.452338,45.6767742 305.135219,45.6767742 C302.966756,45.6767742 300.425972,46.4977898 297.958834,48.8162725 C298.856223,49.6372882 299.303553,50.9083622 299.303553,53.6005298 C299.303553,57.7860729 295.445326,71.5824088 291.857133,78.7587946 C291.633467,78.9074503 291.409802,78.9838238 291.184773,78.9838238 C289.765043,78.9838238 288.792644,78.1600806 288.792644,75.1706017 C288.792644,71.507399 290.868368,62.7326239 294.156522,54.9588879 C291.839403,52.9390803 289.372265,52.0430549 286.980136,52.0430549 C282.495918,52.0430549 278.607686,55.1825532 277.711661,60.5641607 L267.564889,76.8153606 C266.891165,76.8153606 266.6675,76.6667049 266.6675,75.7679519 C267.26485,72.6298174 268.685944,65.0592895 269.656979,63.1158555 C271.749069,60.2000226 272.796477,57.8829037 272.796477,56.163135 C272.796477,55.790814 272.721467,55.2671097 272.572812,54.7434053 C270.853043,52.8749811 268.08723,51.7539265 265.620091,51.7539265 C263.530729,51.7539265 261.598206,52.2830861 259.965721,53.518701 C255.503324,55.8017245 250.432666,56.2122323 247.998259,55.3189346 C245.987998,54.132417 243.286284,53.4927885 239.794922,53.4927885 C230.002742,53.4927885 219.986897,60.0718241 215.79999,72.1811228 C215.277649,73.6008525 214.528916,76.8153606 214.528916,79.1324795 C214.528916,86.2338556 218.265764,90.7930836 227.461958,90.7930836 C237.252774,90.7930836 247.269983,84.2154118 251.455526,72.1061131 C252.05424,70.6863834 252.7266,67.3968656 252.7266,65.1533926 C252.7266,63.660017 252.557487,62.2948399 252.22608,61.0564973 C253.805376,61.4410927 255.057357,61.5406511 256.047485,61.4970091 C255.819729,62.2566531 255.619248,63.0708497 255.45559,63.9573283 L251.118664,86.9062156 C254.109507,89.5970193 257.54768,90.7930836 260.239848,90.7930836 C262.106908,90.7930836 264.275371,89.9707042 265.545082,88.8496496 L274.741275,76.2916563 C274.666265,77.1140357 274.516246,78.9074503 274.516246,79.5798103 C274.516246,85.9351805 276.983384,90.7930836 284.15977,90.7930836 C300.630544,90.7999027 310.068132,63.9150501 310.068132,50.4610314 C310.068132,49.4886325 310.068132,48.8899184 309.844467,47.9188833 M376.851344,70.3863445 C371.243344,75.9916173 368.926225,77.4877206 368.105209,77.4877206 C367.655151,77.4877206 367.431486,77.1876816 367.431486,76.6667049 C368.403884,72.479798 372.664437,62.2389235 373.263151,58.6520944 C372.439408,55.4362225 369.823614,53.4927885 366.609106,53.4927885 C362.945903,53.4927885 358.611705,55.9599269 349.86557,67.6955407 C349.64054,67.9205699 349.19321,68.0692256 348.519486,68.0692256 C352.556373,58.0520165 361.314783,33.746135 361.538448,30.1579421 C360.566049,26.34472 356.90421,25 351.821278,25 C350.625214,25 349.429149,25.0750097 348.159439,25.2236654 C347.93441,27.6894399 343.547022,41.5471474 338.165415,58.6643687 L333.994874,72.4116073 C329.381093,76.6912536 326.17204,78.6837849 324.674573,78.6837849 C323.403499,78.6837849 323.17847,77.63774 323.17847,75.9179714 L329.805239,53.5309753 L334.886808,52.6335861 C336.60794,50.9151813 338.399991,47.1019591 338.62502,44.5611749 L332.271014,45.2335349 L333.690743,40.5979333 C333.019747,38.2808144 330.253934,36.9360944 325.768352,36.9360944 C324.123593,36.9360944 322.330178,37.0847501 320.46039,37.4597988 L317.545921,46.7282743 L315.527477,46.8782938 C314.107747,47.8493289 312.462988,50.3164672 312.462988,53.3809558 C312.462988,54.3519909 312.536634,55.1007244 312.761664,56.2967887 L314.555078,55.9967498 L306.059885,84.2154118 C307.255949,87.9522604 311.891551,90.7930836 316.078458,90.7930836 C318.620606,90.7930836 324.467274,89.0924084 331.264519,81.1372851 L329.832515,85.7101513 C331.552284,88.7009939 334.093068,90.7930836 337.307576,90.7930836 C340.222045,90.7930836 342.689184,89.3733539 344.258933,86.1602097 C346.053711,82.5720167 352.481364,68.1442353 355.472206,68.1442353 C355.844527,68.1442353 356.294586,68.2942548 356.518251,68.891605 L353.005068,77.63774 C351.286663,81.898293 350.389274,85.3364664 350.315628,86.6075404 C352.032669,89.5970193 354.873492,90.7930836 357.789325,90.7930836 C361.824849,90.7930836 367.88018,87.056235 375.728926,76.4416757 C376.32764,75.6192963 377,74.0495471 377,72.0311034 C377,71.507399 376.92499,70.9100488 376.851344,70.3863445 M135.941899,46.6764494 C133.69979,47.0501342 131.53269,47.797504 125.552369,51.8343915 C126.148355,50.339652 126.448394,49.6659282 126.523404,49.1435877 C126.148355,46.2277548 123.90761,43.4619413 117.702259,43.4619413 C116.357539,43.4619413 114.78779,43.610597 112.918002,43.9106359 C112.918002,46.6014396 109.429367,63.2849684 106.066204,72.479798 L102.925342,75.021946 C101.505612,76.1430006 100.384557,78.3837459 100.384557,80.5522092 C100.384557,81.3759524 100.533213,82.0483124 100.908262,82.7206724 C102.029316,81.898293 102.701676,81.2995789 103.524056,80.4785633 L100.458203,90.344389 C98.0674385,98.1194889 97.245059,101.707682 97.0200298,103.874781 C98.4411233,106.491939 101.206937,108.509019 104.570101,108.509019 C106.588544,108.509019 108.606988,107.911669 110.775451,106.340556 C111.297792,103.276067 112.195181,99.4642089 113.16758,95.9510257 L123.220248,61.263797 C125.537367,59.692684 126.584776,59.3189991 127.482165,59.3189991 C128.601856,59.3189991 129.20057,59.9927229 129.20057,61.4124526 C129.20057,67.3177644 121.54003,82.9443378 118.100493,82.9443378 C118.025483,82.9443378 117.800454,82.8693281 117.501779,82.7956821 C118.996518,88.5509745 121.613676,90.7930836 125.276879,90.7930836 C131.554511,90.7930836 144.000672,72.4743427 144.000672,58.9453143 C144.000672,53.4886971 141.922221,47.3501732 135.941899,46.6764494 M97.3418898,80.7022286 C97.3418898,71.9560936 102.078414,55.1361836 109.552111,36.0005185 C108.656085,34.2057401 106.263957,33.0860494 103.049449,33.0860494 C100.358645,33.0860494 97.2941563,33.907065 94.081012,35.9255087 C91.4638542,42.1294957 89.2203813,48.1848269 87.2769472,53.9414831 C79.5782209,67.3955018 71.8535821,77.9364152 68.7877297,77.9364152 C66.9193054,77.9364152 65.7982508,76.8153606 65.7982508,74.123193 C65.7982508,65.2284024 74.4202788,45.7176886 77.4111215,40.3360811 C79.3313707,36.7465244 82.9427484,29.7215218 82.9427484,29.7215218 C82.9427484,29.1228078 82.8663749,28.5991034 82.6427095,28.1504088 C78.0848453,24.0930641 64.774027,25.4855176 64.774027,25.4855176 C48.1941481,27.615794 39.7780559,37.0042851 40.0044489,44.6143636 C40.3576766,56.4495358 48.6428427,53.8241951 48.6428427,53.8241951 C48.6428427,46.9546673 53.4216446,38.7540576 64.2325931,38.3162735 L64.1043946,38.6163125 C55.2096039,50.8742669 49.3533894,69.9376499 49.3533894,78.5351292 C49.3533894,86.6075404 52.4928878,91.9141382 59.3705985,91.9141382 C63.779807,91.9141382 71.2535042,87.5799394 82.018083,74.1995666 C81.7194078,76.4416757 81.5707522,78.5351292 81.5707522,80.5522092 C81.5707522,88.400955 85.9063148,90.7930836 90.3155234,90.7930836 C93.6050412,90.7930836 96.3694908,89.7470388 99.1366681,87.9522604 C97.9406038,86.457521 97.3418898,84.0653924 97.3418898,80.7022286" id="Fill-1"></path>
        </g>
    </g>
</svg>